<svg width="29.000000" height="16.000000" viewBox="0 0 29 16" fill="none" xmlns="http://www.w3.org/2000/svg" xmlns:xlink="http://www.w3.org/1999/xlink">
	<desc>
			Created with Pixso.
	</desc>
	<defs>
		<clipPath id="clip4016_3094">
			<rect id="Badge" rx="3.500000" width="28.000000" height="15.000000" transform="translate(0.500000 0.500000)" fill="white" fill-opacity="0"/>
		</clipPath>
	</defs>
	<rect id="Badge" rx="3.500000" width="28.000000" height="15.000000" transform="translate(0.500000 0.500000)" fill="#574092" fill-opacity="1.000000"/>
	<g clip-path="url(#clip4016_3094)">
		<path id="ГОЛ" d="M11.91 11.66C12.37 11.84 12.88 11.94 13.44 11.94C13.99 11.94 14.5 11.84 14.96 11.66C15.42 11.47 15.83 11.21 16.18 10.88Q16.38 10.68 16.54 10.46Q16.81 10.11 16.98 9.7C17.16 9.24 17.26 8.74 17.26 8.2Q17.26 7.39 16.98 6.71Q16.81 6.29 16.54 5.94Q16.38 5.72 16.18 5.53Q16.07 5.42 15.96 5.33Q15.52 4.97 14.96 4.75C14.5 4.56 13.99 4.46 13.44 4.46C12.88 4.46 12.37 4.56 11.91 4.75C11.45 4.93 11.04 5.19 10.7 5.53Q10.5 5.72 10.33 5.94Q10.07 6.29 9.9 6.71Q9.62 7.39 9.62 8.2Q9.62 9.01 9.9 9.7C10.08 10.15 10.35 10.54 10.7 10.88C11.04 11.21 11.45 11.47 11.91 11.66ZM4.86 4.63L4.86 11.78L6.21 11.78L6.21 5.78L9.59 5.78L9.59 4.63L4.86 4.63ZM17.38 10.63L17.38 11.78L18.22 11.78Q18.73 11.78 19.06 11.62C19.28 11.5 19.45 11.33 19.58 11.1C19.71 10.86 19.79 10.55 19.84 10.17L20.38 5.78L22.59 5.78L22.59 11.78L23.94 11.78L23.94 4.63L19.21 4.63L18.56 10.1C18.53 10.31 18.48 10.44 18.4 10.52Q18.28 10.63 18 10.63L17.38 10.63ZM14.69 10.42C14.33 10.64 13.91 10.75 13.44 10.75Q12.88 10.75 12.41 10.53Q12.3 10.48 12.19 10.42C11.83 10.2 11.54 9.89 11.34 9.52C11.14 9.13 11.04 8.69 11.04 8.2Q11.04 7.46 11.34 6.89C11.54 6.51 11.83 6.21 12.19 5.99C12.55 5.77 12.97 5.66 13.44 5.66C13.91 5.66 14.33 5.77 14.69 5.99C15.05 6.21 15.33 6.51 15.53 6.89C15.73 7.27 15.84 7.7 15.84 8.2C15.84 8.69 15.73 9.13 15.53 9.52C15.33 9.89 15.05 10.2 14.69 10.42Z" fill="#FFFFFF" fill-opacity="1.000000" fill-rule="evenodd"/>
	</g>
</svg>
