<svg width="27.000000" height="16.000000" viewBox="0 0 27 16" fill="none" xmlns="http://www.w3.org/2000/svg" xmlns:xlink="http://www.w3.org/1999/xlink">
	<desc>
			Created with Pixso.
	</desc>
	<defs>
		<clipPath id="clip4016_3139">
			<rect id="Badge" rx="3.500000" width="26.000000" height="15.000000" transform="translate(0.500000 0.500000)" fill="white" fill-opacity="0"/>
		</clipPath>
	</defs>
	<rect id="Badge" rx="3.500000" width="26.000000" height="15.000000" transform="translate(0.500000 0.500000)" fill="#F9B31D" fill-opacity="1.000000"/>
	<g clip-path="url(#clip4016_3139)">
		<path id="ЖК" d="M7.29 8.07L4.13 11.78L5.8 11.78L8.75 8.34L8.75 11.78L10.1 11.78L10.1 8.34L13.06 11.78L14.72 11.78L11.57 8.07L14.55 4.63L12.96 4.63L10.1 7.96L10.1 4.63L8.75 4.63L8.75 7.96L5.89 4.63L4.31 4.63L7.29 8.07ZM15.5 11.78L16.85 11.78L16.85 8.32L20.21 11.78L22.04 11.78L18.35 8.06L21.62 4.63L19.95 4.63L16.85 7.97L16.85 4.63L15.5 4.63L15.5 11.78Z" fill="#FFFFFF" fill-opacity="1.000000" fill-rule="evenodd"/>
	</g>
</svg>
