<svg width="23.000000" height="16.000000" viewBox="0 0 23 16" fill="none" xmlns="http://www.w3.org/2000/svg" xmlns:xlink="http://www.w3.org/1999/xlink">
	<desc>
			Created with Pixso.
	</desc>
	<defs>
		<clipPath id="clip4016_3097">
			<rect id="Badge" rx="3.500000" width="22.000000" height="15.000000" transform="translate(0.500000 0.500000)" fill="white" fill-opacity="0"/>
		</clipPath>
	</defs>
	<rect id="Badge" rx="3.500000" width="22.000000" height="15.000000" transform="translate(0.500000 0.500000)" fill="#E91414" fill-opacity="1.000000"/>
	<g clip-path="url(#clip4016_3097)">
		<path id="КК" d="M4.86 11.78L6.21 11.78L6.21 8.32L9.57 11.78L11.4 11.78L7.7 8.06L10.98 4.63L9.31 4.63L6.21 7.97L6.21 4.63L4.86 4.63L4.86 11.78ZM12.18 11.78L13.53 11.78L13.53 8.32L16.89 11.78L18.72 11.78L15.03 8.06L18.3 4.63L16.63 4.63L13.53 7.97L13.53 4.63L12.18 4.63L12.18 11.78Z" fill="#FFFFFF" fill-opacity="1.000000" fill-rule="evenodd"/>
	</g>
</svg>
