<svg width="42.000000" height="16.000000" viewBox="0 0 42 16" fill="none" xmlns="http://www.w3.org/2000/svg" xmlns:xlink="http://www.w3.org/1999/xlink">
	<desc>
			Created with Pixso.
	</desc>
	<defs>
		<clipPath id="clip2011_3043">
			<rect id="Badge" rx="7.500000" width="41.000000" height="15.000000" transform="translate(0.500000 0.500000)" fill="white" fill-opacity="0"/>
		</clipPath>
	</defs>
	<rect id="Badge" rx="7.500000" width="41.000000" height="15.000000" transform="translate(0.500000 0.500000)" fill="#E91414" fill-opacity="1.000000"/>
	<g clip-path="url(#clip2011_3043)">
		<circle id="Ellipse 1" cx="8.000000" cy="8.000000" r="4.000000" fill="#FFFFFF" fill-opacity="1.000000"/>
		<path id="Live" d="M22.23 5.66C22.39 5.8 22.58 5.88 22.8 5.88Q23.01 5.88 23.18 5.79Q23.28 5.74 23.37 5.66C23.52 5.5 23.6 5.32 23.6 5.11C23.6 4.89 23.52 4.7 23.37 4.56C23.21 4.4 23.02 4.33 22.8 4.33Q22.62 4.33 22.47 4.39Q22.34 4.44 22.23 4.55C22.07 4.69 22 4.88 22 5.11C22 5.32 22.07 5.5 22.23 5.66ZM16.7 11.78L21.44 11.78L21.44 10.61L18.06 10.61L18.06 4.63L16.7 4.63L16.7 11.78ZM34.85 11.02L34.15 10.21C33.74 10.67 33.23 10.91 32.63 10.91C32.31 10.91 32.02 10.84 31.76 10.72C31.52 10.58 31.32 10.39 31.17 10.14C31.09 10 31.04 9.84 31 9.67L34.92 9.67L34.92 9.22Q34.92 8.43 34.59 7.85C34.37 7.45 34.07 7.15 33.67 6.93C33.29 6.7 32.84 6.59 32.34 6.59Q31.7 6.59 31.16 6.82Q31.05 6.87 30.95 6.93Q30.68 7.08 30.46 7.28Q30.18 7.54 29.98 7.88Q29.96 7.91 29.95 7.94Q29.63 8.52 29.63 9.27Q29.63 9.95 29.91 10.49Q29.95 10.58 30 10.66C30.25 11.06 30.59 11.37 31.03 11.6C31.47 11.82 31.98 11.94 32.56 11.94C33.04 11.94 33.48 11.86 33.87 11.7C34.27 11.53 34.6 11.3 34.85 11.02ZM33.61 8.83C33.59 8.64 33.54 8.48 33.46 8.34C33.36 8.11 33.21 7.93 33.01 7.81Q32.98 7.78 32.95 7.77Q32.69 7.62 32.34 7.62C32.07 7.62 31.83 7.68 31.62 7.82C31.42 7.94 31.25 8.13 31.13 8.38Q31.04 8.58 31 8.83L33.61 8.83ZM22.14 11.78L23.46 11.78L23.46 6.75L22.14 6.75L22.14 11.78ZM26.16 11.78L27.44 11.78L29.59 6.75L28.26 6.75L26.81 10.46L25.39 6.75L24.02 6.75L26.16 11.78Z" fill="#FFFFFF" fill-opacity="1.000000" fill-rule="evenodd"/>
	</g>
</svg>
