<svg width="16.000000" height="16.000000" viewBox="0 0 16 16" fill="none" xmlns="http://www.w3.org/2000/svg" xmlns:xlink="http://www.w3.org/1999/xlink">
	<desc>
			Created with Pixso.
	</desc>
	<defs/>
	<path id="Vector" d="M2 14L14 14L14 16L2 16L2 14ZM10 4L12 4L12 0L10 0L10 2L6 2L6 0L4 0L4 4L10 4ZM7 12L9 12L9 10L7 10L7 12ZM6 10L4 10L4 12L6 12L6 10ZM10 12L12 12L12 10L10 10L10 12ZM9 7L7 7L7 9L9 9L9 7ZM6 7L4 7L4 9L6 9L6 7ZM12 7L10 7L10 9L12 9L12 7ZM0 2L0 14L2 14L2 2L0 2ZM14 2L14 14L16 14L16 2L14 2Z" fill="#574092" fill-opacity="1.000000" fill-rule="evenodd"/>
</svg>
