<svg width="16.000000" height="16.000000" viewBox="0 0 16 16" fill="none" xmlns="http://www.w3.org/2000/svg" xmlns:xlink="http://www.w3.org/1999/xlink">
	<desc>
			Created with Pixso.
	</desc>
	<defs/>
	<path id="Vector" d="M6 6L10 6L10 8L6 8L6 6ZM10 0L6 0L6 2L10 2L10 0ZM4 2L4 6L6 6L6 2L4 2ZM12 2L10 2L10 6L12 6L12 2ZM0 16L2 16L2 8L0 8L0 16ZM3 16L5 16L5 8L3 8L3 16ZM11 16L13 16L13 8L11 8L11 16ZM7 15L9 15L9 9L7 9L7 15ZM14 8L14 16L16 16L16 8L14 8Z" fill="#0DCCA6" fill-opacity="1.000000" fill-rule="evenodd"/>
</svg>
