<svg width="18.000000" height="16.000000" viewBox="0 0 18 16" fill="none" xmlns="http://www.w3.org/2000/svg" xmlns:xlink="http://www.w3.org/1999/xlink">
	<desc>
			Created with Pixso.
	</desc>
	<defs/>
	<path id="Vector" d="M8 12L10 12L10 14L13 14L13 16L5 16L5 14L8 14L8 12ZM8 6L10 6L10 4L8 4L8 6ZM6 10L6 12L8 12L8 10L6 10ZM6 4L4 4L4 6L2 6L2 8L4 8L4 10L6 10L6 4ZM14 4L12 4L12 10L14 10L14 8L16 8L16 6L14 6L14 4ZM14 0L4 0L4 2L14 2L14 0ZM10 12L12 12L12 10L10 10L10 12ZM14 2L14 4L16 4L16 6L18 6L18 2L14 2ZM4 4L4 2L0 2L0 6L2 6L2 4L4 4Z" fill="#0DCCA6" fill-opacity="1.000000" fill-rule="evenodd"/>
</svg>
