<svg width="16.000000" height="16.000000" viewBox="0 0 16 16" fill="none" xmlns="http://www.w3.org/2000/svg" xmlns:xlink="http://www.w3.org/1999/xlink">
	<desc>
			Created with Pixso.
	</desc>
	<defs/>
	<path id="Vector" d="M6 6L10 6L10 8L6 8L6 6ZM4 8L2 8L2 10L4 10L4 8ZM12 8L12 10L14 10L14 8L12 8ZM9 12L9 10L7 10L7 12L9 12ZM10 0L6 0L6 2L10 2L10 0ZM6 2L4 2L4 6L6 6L6 2ZM12 6L12 2L10 2L10 6L12 6ZM14 10L14 14L2 14L2 10L0 10L0 16L16 16L16 10L14 10Z" fill="#0DCCA6" fill-opacity="1.000000" fill-rule="evenodd"/>
</svg>
